<mxfile host="app.diagrams.net" modified="2023-11-12T20:49:22.272Z" agent="Mozilla/5.0 (Windows NT 10.0; Win64; x64) AppleWebKit/537.36 (KHTML, like Gecko) Chrome/119.0.0.0 Safari/537.36" etag="CrB_lp-AZwolaTyBItaQ" version="22.1.0" type="device">
  <diagram name="Trang-1" id="0NV25_TZeDsqgP09aCJV">
    <mxGraphModel dx="1313" dy="718" grid="1" gridSize="10" guides="1" tooltips="1" connect="1" arrows="1" fold="1" page="1" pageScale="1" pageWidth="827" pageHeight="1169" math="0" shadow="0">
      <root>
        <mxCell id="0" />
        <mxCell id="1" parent="0" />
        <mxCell id="n-miZ00amJbJgPX6Vn2I-29" value="" style="whiteSpace=wrap;html=1;aspect=fixed;" parent="1" vertex="1">
          <mxGeometry x="150" y="85" width="760" height="760" as="geometry" />
        </mxCell>
        <mxCell id="n-miZ00amJbJgPX6Vn2I-6" style="rounded=0;orthogonalLoop=1;jettySize=auto;html=1;entryX=0;entryY=0.5;entryDx=0;entryDy=0;endArrow=none;endFill=0;" parent="1" source="n-miZ00amJbJgPX6Vn2I-7" target="n-miZ00amJbJgPX6Vn2I-8" edge="1">
          <mxGeometry relative="1" as="geometry">
            <mxPoint x="210" y="330" as="targetPoint" />
          </mxGeometry>
        </mxCell>
        <mxCell id="n-miZ00amJbJgPX6Vn2I-7" value="Admin" style="shape=umlActor;verticalLabelPosition=bottom;verticalAlign=top;html=1;" parent="1" vertex="1">
          <mxGeometry x="60" y="460" width="30" height="60" as="geometry" />
        </mxCell>
        <mxCell id="n-miZ00amJbJgPX6Vn2I-8" value="View list teacher" style="ellipse;whiteSpace=wrap;html=1;" parent="1" vertex="1">
          <mxGeometry x="220" y="295" width="140" height="70" as="geometry" />
        </mxCell>
        <mxCell id="n-miZ00amJbJgPX6Vn2I-9" value="" style="group" parent="1" connectable="0" vertex="1">
          <mxGeometry x="410" y="200" width="210" height="80" as="geometry" />
        </mxCell>
        <mxCell id="n-miZ00amJbJgPX6Vn2I-10" value="" style="endArrow=open;dashed=1;endFill=0;endSize=12;html=1;exitX=1;exitY=0;exitDx=0;exitDy=0;" parent="n-miZ00amJbJgPX6Vn2I-9" source="n-miZ00amJbJgPX6Vn2I-8" edge="1">
          <mxGeometry width="160" relative="1" as="geometry">
            <mxPoint y="20" as="sourcePoint" />
            <mxPoint x="70" y="50" as="targetPoint" />
          </mxGeometry>
        </mxCell>
        <mxCell id="n-miZ00amJbJgPX6Vn2I-11" value="Login" style="ellipse;whiteSpace=wrap;html=1;strokeColor=#000000;" parent="n-miZ00amJbJgPX6Vn2I-9" vertex="1">
          <mxGeometry x="70" y="10" width="140" height="70" as="geometry" />
        </mxCell>
        <mxCell id="n-miZ00amJbJgPX6Vn2I-12" value="&amp;lt;&amp;lt;include&amp;gt;&amp;gt;" style="text;html=1;align=center;verticalAlign=middle;resizable=0;points=[];autosize=1;rotation=-15;" parent="1" vertex="1">
          <mxGeometry x="355" y="250" width="80" height="20" as="geometry" />
        </mxCell>
        <mxCell id="n-miZ00amJbJgPX6Vn2I-17" value="Add new teacher" style="ellipse;whiteSpace=wrap;html=1;strokeColor=#000000;" parent="1" vertex="1">
          <mxGeometry x="480" y="460" width="140" height="70" as="geometry" />
        </mxCell>
        <mxCell id="n-miZ00amJbJgPX6Vn2I-18" value="" style="group;rotation=90;" parent="1" connectable="0" vertex="1">
          <mxGeometry x="350" y="410" width="160" height="20" as="geometry" />
        </mxCell>
        <mxCell id="n-miZ00amJbJgPX6Vn2I-19" value="&amp;lt;&amp;lt;extend&amp;gt;&amp;gt;" style="text;html=1;align=center;verticalAlign=middle;resizable=0;points=[];autosize=1;rotation=30;" parent="n-miZ00amJbJgPX6Vn2I-18" vertex="1">
          <mxGeometry x="61" y="-10" width="80" height="20" as="geometry" />
        </mxCell>
        <mxCell id="n-miZ00amJbJgPX6Vn2I-20" value="" style="endArrow=open;dashed=1;endFill=0;endSize=12;html=1;entryX=1;entryY=1;entryDx=0;entryDy=0;exitX=0;exitY=0;exitDx=0;exitDy=0;" parent="1" source="n-miZ00amJbJgPX6Vn2I-17" target="n-miZ00amJbJgPX6Vn2I-8" edge="1">
          <mxGeometry width="160" relative="1" as="geometry">
            <mxPoint x="310" y="460" as="sourcePoint" />
            <mxPoint x="470" y="460" as="targetPoint" />
          </mxGeometry>
        </mxCell>
        <mxCell id="n-miZ00amJbJgPX6Vn2I-21" value="Update teacher" style="ellipse;whiteSpace=wrap;html=1;strokeColor=#000000;" parent="1" vertex="1">
          <mxGeometry x="360" y="550" width="140" height="70" as="geometry" />
        </mxCell>
        <mxCell id="n-miZ00amJbJgPX6Vn2I-22" value="" style="endArrow=open;dashed=1;endFill=0;endSize=12;html=1;exitX=0.1;exitY=0.057;exitDx=0;exitDy=0;exitPerimeter=0;entryX=0.5;entryY=1;entryDx=0;entryDy=0;" parent="1" source="n-miZ00amJbJgPX6Vn2I-21" target="n-miZ00amJbJgPX6Vn2I-8" edge="1">
          <mxGeometry width="160" relative="1" as="geometry">
            <mxPoint x="500.5025253169417" y="490.25126265847086" as="sourcePoint" />
            <mxPoint x="290" y="360" as="targetPoint" />
          </mxGeometry>
        </mxCell>
        <mxCell id="n-miZ00amJbJgPX6Vn2I-25" value="" style="endArrow=block;endFill=0;endSize=12;html=1;entryX=0.986;entryY=0.386;entryDx=0;entryDy=0;entryPerimeter=0;exitX=0;exitY=0.5;exitDx=0;exitDy=0;" parent="1" target="n-miZ00amJbJgPX6Vn2I-11" edge="1" source="n-miZ00amJbJgPX6Vn2I-30">
          <mxGeometry width="160" relative="1" as="geometry">
            <mxPoint x="736" y="187" as="sourcePoint" />
            <mxPoint x="700" y="180" as="targetPoint" />
          </mxGeometry>
        </mxCell>
        <mxCell id="n-miZ00amJbJgPX6Vn2I-26" value="" style="endArrow=block;endFill=0;endSize=12;html=1;entryX=1;entryY=1;entryDx=0;entryDy=0;exitX=0;exitY=0.5;exitDx=0;exitDy=0;" parent="1" target="n-miZ00amJbJgPX6Vn2I-11" edge="1" source="n-miZ00amJbJgPX6Vn2I-31">
          <mxGeometry width="160" relative="1" as="geometry">
            <mxPoint x="730" y="265" as="sourcePoint" />
            <mxPoint x="628.04" y="247.01999999999998" as="targetPoint" />
          </mxGeometry>
        </mxCell>
        <mxCell id="n-miZ00amJbJgPX6Vn2I-27" value="&lt;b&gt;&lt;font style=&quot;font-size: 19px;&quot;&gt;Doanit&lt;/font&gt;&lt;/b&gt;" style="text;html=1;strokeColor=none;fillColor=none;align=center;verticalAlign=middle;whiteSpace=wrap;rounded=0;" parent="1" vertex="1">
          <mxGeometry x="520" y="100" width="40" height="20" as="geometry" />
        </mxCell>
        <mxCell id="n-miZ00amJbJgPX6Vn2I-30" value="Login By Account" style="ellipse;whiteSpace=wrap;html=1;" parent="1" vertex="1">
          <mxGeometry x="740" y="150" width="120" height="80" as="geometry" />
        </mxCell>
        <mxCell id="n-miZ00amJbJgPX6Vn2I-31" value="Login By Gmail" style="ellipse;whiteSpace=wrap;html=1;" parent="1" vertex="1">
          <mxGeometry x="740" y="280" width="120" height="80" as="geometry" />
        </mxCell>
        <mxCell id="n-miZ00amJbJgPX6Vn2I-24" value="&amp;lt;&amp;lt;extend&amp;gt;&amp;gt;" style="text;html=1;align=center;verticalAlign=middle;resizable=0;points=[];autosize=1;rotation=65;" parent="1" vertex="1">
          <mxGeometry x="320" y="480" width="80" height="20" as="geometry" />
        </mxCell>
      </root>
    </mxGraphModel>
  </diagram>
</mxfile>
